<svg width="30" height="31" viewBox="0 0 30 31" fill="none" xmlns="http://www.w3.org/2000/svg">
<circle cx="15" cy="15.667" r="15" fill="white"/>
<path d="M23.9456 11.9566C23.9018 10.9986 23.7497 10.3444 23.5272 9.772C23.3013 9.17145 22.947 8.62749 22.4891 8.17787C22.0397 7.72001 21.4956 7.36556 20.895 7.13951C20.3225 6.91718 19.6684 6.76515 18.7104 6.72162C17.7506 6.67767 17.4439 6.66724 14.9998 6.66724C12.5556 6.66724 12.2489 6.67767 11.2891 6.72134C10.3311 6.76515 9.67702 6.91731 9.10449 7.13979C8.50395 7.3657 7.95999 7.72001 7.51038 8.17787C7.05252 8.62735 6.69807 9.17131 6.47203 9.77186C6.24969 10.3444 6.09767 10.9986 6.05414 11.9565C6.01019 12.9164 5.99976 13.223 5.99976 15.6672C5.99976 18.1115 6.01019 18.4182 6.05414 19.378C6.09781 20.3358 6.24997 20.9901 6.47244 21.5626C6.69835 22.163 7.05266 22.7071 7.51051 23.1566C7.95999 23.6145 8.50409 23.9688 9.10463 24.1947C9.67702 24.4173 10.3313 24.5693 11.2893 24.6131C12.2492 24.6569 12.5557 24.6672 14.9999 24.6672C17.4441 24.6672 17.7507 24.6569 18.7105 24.6131C19.6685 24.5693 20.3226 24.4173 20.8952 24.1947C22.1041 23.7272 23.0597 22.7715 23.5272 21.5626C23.7498 20.9901 23.9018 20.3358 23.9456 19.378C23.9893 18.418 23.9998 18.1115 23.9998 15.6673C23.9998 13.223 23.9893 12.9164 23.9456 11.9566ZM22.3256 19.3042C22.2856 20.1818 22.1389 20.6583 22.0158 20.9754C21.713 21.7604 21.0926 22.3807 20.3077 22.6835C19.9906 22.8067 19.514 22.9534 18.6365 22.9933C17.6877 23.0367 17.403 23.0458 14.9998 23.0458C12.5964 23.0458 12.3118 23.0367 11.3629 22.9933C10.4855 22.9534 10.0089 22.8067 9.69171 22.6835C9.30087 22.5392 8.94725 22.3091 8.65694 22.0102C8.35797 21.7199 8.12794 21.3664 7.98361 20.9754C7.86043 20.6583 7.71376 20.1818 7.6738 19.3042C7.63054 18.3553 7.62134 18.0706 7.62134 15.6674C7.62134 13.2642 7.63054 12.9796 7.6738 12.0305C7.7139 11.153 7.86043 10.6765 7.98361 10.3594C8.12794 9.96838 8.35811 9.61475 8.65694 9.32444C8.94725 9.02547 9.30087 8.79544 9.69185 8.65124C10.0089 8.52792 10.4855 8.38139 11.363 8.34129C12.312 8.29803 12.5966 8.28883 14.9998 8.28883H14.9996C17.4027 8.28883 17.6874 8.29803 18.6365 8.34143C19.514 8.38139 19.9904 8.52806 20.3077 8.65124C20.6985 8.79558 21.0521 9.02561 21.3424 9.32444C21.6414 9.61475 21.8714 9.96838 22.0156 10.3594C22.1389 10.6765 22.2856 11.153 22.3256 12.0305C22.3688 12.9795 22.378 13.2642 22.378 15.6673C22.378 18.0706 22.369 18.3551 22.3256 19.3042Z" fill="#107DC6"/>
<path d="M14.9996 11.0456C12.4472 11.0456 10.3781 13.1149 10.3781 15.6673C10.3781 18.2197 12.4472 20.2889 14.9996 20.2889C17.5522 20.2889 19.6213 18.2197 19.6213 15.6673C19.6213 13.1149 17.5522 11.0456 14.9996 11.0456ZM14.9996 18.6673C13.3429 18.6671 11.9997 17.3241 11.9998 15.6672C11.9998 14.0104 13.3429 12.6672 14.9998 12.6672C16.6566 12.6673 17.9997 14.0104 17.9997 15.6672C17.9997 17.3241 16.6565 18.6673 14.9996 18.6673Z" fill="#107DC6"/>
<path d="M20.8839 10.8631C20.8839 11.4595 20.4004 11.943 19.8039 11.943C19.2074 11.943 18.7238 11.4595 18.7238 10.8631C18.7238 10.2665 19.2074 9.78298 19.8039 9.78298C20.4004 9.78298 20.8839 10.2665 20.8839 10.8631Z" fill="#107DC6"/>
</svg>
