<svg width="178" height="173" viewBox="0 0 178 173" fill="none" xmlns="http://www.w3.org/2000/svg">
<path d="M178 88.4807C177.68 125.7 153.761 159.019 118.778 170.719C109.05 173.969 101.169 170.719 98.2087 162.255C95.4151 154.272 99.529 147.362 109.341 143.561C137.291 132.709 152.941 106.553 148.146 78.7449C143.295 50.682 119.237 30.1082 90.2588 29.2463C62.0448 28.3984 35.5959 49.7635 30.5647 77.4307C25.4222 105.677 41.3916 133.387 68.6049 143.391C70.5646 144.112 72.5799 144.677 74.4562 145.567C80.641 148.492 83.8098 154.752 82.4756 161.111C81.0162 168.049 75.6792 172.641 68.6049 172.5C65.6723 172.443 62.6424 171.68 59.8349 170.719C22.6147 158.016 -2.52767 120.246 0.794074 82.1927C4.37989 41.144 34.8871 8.0366 74.6924 1.98881C124.421 -5.58506 169.216 26.731 176.93 75.834C177.583 80.0025 177.653 84.2557 178 88.4666V88.4807Z" fill="#0D7CC6"/>
</svg>
