<svg width="263" height="34" viewBox="0 0 263 34" fill="none" xmlns="http://www.w3.org/2000/svg">
<path d="M243.749 19.3119C244.372 17.8034 244.898 16.5617 245.398 15.3068C246.736 11.9648 248.044 8.6096 249.397 5.27289C250.444 2.69439 251.862 1.83842 254.461 2.12638C256.657 2.36944 258.047 3.84098 258.455 6.33757C259.74 14.1893 261.027 22.041 262.318 29.8927C262.564 31.3986 261.857 32.5135 260.42 32.8649C258.701 33.2849 257.241 32.6271 256.9 31.0552C256.382 28.6537 256.026 26.2126 255.639 23.782C254.917 19.2353 254.22 14.6833 253.451 9.71128C253.087 10.4801 252.878 10.8843 252.703 11.3043C250.876 15.6793 249.054 20.0596 247.233 24.4372C246.746 25.6076 246.1 26.6247 244.812 27.0342C242.896 27.6445 241.292 26.8229 240.353 24.6354C238.447 20.197 236.589 15.7401 234.707 11.2911C234.54 10.8948 234.352 10.5091 233.894 10.1208C233.632 11.8089 233.37 13.4971 233.111 15.1853C232.336 20.2709 231.57 25.3566 230.787 30.4423C230.599 31.6602 230.078 32.606 228.733 32.8411C226.178 33.2902 224.914 32.1595 225.312 29.5757C226.516 21.753 227.772 13.9383 229.049 6.12886C229.429 3.8172 230.928 2.37472 232.978 2.13167C235.508 1.83313 236.958 2.67326 237.981 5.16457C239.701 9.34669 241.371 13.55 243.064 17.7453C243.239 18.1812 243.438 18.6092 243.744 19.3172L243.749 19.3119Z" fill="#107DC6"/>
<path d="M192.596 12.0731C187.668 18.2895 182.737 24.5059 177.82 30.7302C176.799 32.0221 175.664 33.0102 173.879 32.9124C172.602 32.8437 171.85 32.2203 171.591 30.9786C171.51 30.5928 171.447 30.1939 171.447 29.8029C171.44 21.6606 171.411 13.5183 171.481 5.37592C171.489 4.49617 171.856 3.30995 172.479 2.82385C173.19 2.27169 174.415 2.0894 175.355 2.21621C176.464 2.36415 177.058 3.3945 177.176 4.53051C177.278 5.53443 177.289 6.55156 177.291 7.56341C177.302 12.229 177.297 16.8946 177.297 21.5602C177.297 22.0199 177.297 22.4822 177.297 23.3488C177.914 22.6302 178.283 22.2286 178.621 21.8032C183.203 16.0386 187.762 10.2502 192.387 4.51994C193.08 3.66133 194.001 2.88197 194.975 2.38001C196.747 1.46591 198.293 2.36151 198.655 4.32708C198.733 4.75507 198.744 5.20155 198.744 5.63747C198.749 13.4707 198.749 21.3066 198.744 29.1398C198.744 29.6206 198.712 30.1094 198.631 30.5823C198.346 32.2546 197.532 32.9256 195.852 32.9098C194.143 32.8939 193.214 32.2467 193.101 30.5744C192.921 27.8585 192.921 25.1268 192.897 22.4003C192.868 18.9817 192.889 15.5631 192.889 12.1471L192.591 12.0758L192.596 12.0731Z" fill="#107DC6"/>
<path d="M62.2837 17.2618C62.2235 24.2206 57.7195 30.4502 51.1323 32.6377C49.3003 33.2453 47.8165 32.6377 47.259 31.0552C46.733 29.5625 47.5076 28.2706 49.3553 27.5599C54.6182 25.531 57.5651 20.6408 56.6622 15.4416C55.7488 10.1947 51.2187 6.34814 45.762 6.18698C40.4494 6.02847 35.4691 10.023 34.5217 15.1959C33.5534 20.477 36.5604 25.6578 41.6846 27.5282C42.0536 27.663 42.4331 27.7687 42.7864 27.9351C43.951 28.482 44.5477 29.6523 44.2965 30.8412C44.0217 32.1384 43.0167 32.997 41.6846 32.9706C41.1324 32.96 40.5619 32.8173 40.0332 32.6377C33.0247 30.2626 28.2904 23.2008 28.9159 16.0862C29.5911 8.41146 35.3356 2.22149 42.8309 1.09076C52.1948 -0.325298 60.6297 5.71673 62.0822 14.8973C62.2052 15.6767 62.2183 16.4719 62.2837 17.2592V17.2618Z" fill="#107DC6"/>
<path d="M20.1068 6.89501H5.93529C5.93529 7.37055 5.93529 7.83553 5.93529 8.3005C5.92482 15.077 5.91697 21.8561 5.90389 28.6326C5.90389 29.293 5.93006 29.9588 5.84893 30.6113C5.65788 32.1674 4.76284 32.997 3.27372 33.0762C1.46532 33.1766 0.585976 32.5822 0.222201 30.9152C0.0730277 30.2335 0.018069 29.5202 0.0154519 28.8228C-0.00286764 21.2537 -0.00286763 13.6847 0.00498361 6.11565C0.00498361 5.54764 0.046857 4.96907 0.162009 4.41427C0.507463 2.76044 1.37633 1.90711 3.04603 1.89654C9.71436 1.84898 16.3853 1.84634 23.0536 1.90182C24.8018 1.91767 25.812 2.96651 25.8827 4.74186C25.9874 7.37848 25.9769 10.0204 25.9743 12.6596C25.9664 18.4692 25.9664 24.2761 25.8958 30.0856C25.8696 32.3286 24.8306 33.2163 22.6872 33.0736C21.062 32.9653 20.167 31.9534 20.1487 30.0143C20.1068 25.6129 20.112 21.2141 20.1042 16.8127C20.0989 13.5605 20.1042 10.3083 20.1042 6.89765L20.1068 6.89501Z" fill="#107DC6"/>
<path d="M91.3097 14.2157H103.798C103.798 12.2924 103.791 10.4167 103.801 8.54092C103.809 7.1777 103.801 5.80919 103.88 4.44862C103.979 2.76044 104.843 1.92032 106.418 1.85691C108.166 1.78822 109.239 2.57815 109.512 4.20292C109.611 4.80527 109.611 5.4314 109.611 6.04696C109.614 13.6186 109.611 21.1903 109.603 28.7647C109.603 29.293 109.603 29.8241 109.553 30.3471C109.378 32.1886 108.329 33.1026 106.502 33.0366C104.769 32.9732 103.898 32.1278 103.874 30.2652C103.827 26.6643 103.861 23.0608 103.861 19.3806H91.2914C91.2914 19.843 91.2914 20.3079 91.2914 20.7729C91.2809 23.8111 91.3019 26.8493 91.2469 29.8848C91.205 32.1489 89.9253 33.2744 87.8264 33.0128C86.4865 32.8464 85.7013 32.0855 85.5155 30.7249C85.4501 30.2468 85.4396 29.758 85.4396 29.2772C85.4239 21.6606 85.4108 14.044 85.4004 6.43004C85.4004 5.85939 85.4161 5.2861 85.4632 4.71545C85.6176 2.81064 86.51 1.8939 88.2085 1.8622C90.0614 1.82785 91.0402 2.63099 91.1553 4.61241C91.3071 7.20147 91.2731 9.80374 91.315 12.4007C91.3228 12.9661 91.315 13.5288 91.315 14.2184L91.3097 14.2157Z" fill="#107DC6"/>
<path d="M149.417 14.3425H161.895C161.895 12.4139 161.882 10.5382 161.9 8.66508C161.913 7.30186 161.919 5.936 162.018 4.57807C162.125 3.11974 162.952 2.31924 164.334 2.17922C165.962 2.01278 167.119 2.66797 167.498 4.07346C167.668 4.69959 167.71 5.37592 167.713 6.02847C167.726 13.6424 167.721 21.2537 167.718 28.8677C167.718 29.3512 167.713 29.8373 167.655 30.3181C167.433 32.1146 166.478 32.9045 164.63 32.8543C162.879 32.8041 162.01 31.9746 161.984 30.1226C161.94 26.6089 161.971 23.0951 161.971 19.4705H149.464C149.446 19.8667 149.412 20.3264 149.409 20.7861C149.388 23.8217 149.43 26.8598 149.341 29.8927C149.278 32.0961 148.069 33.0577 145.907 32.8253C144.591 32.6852 143.644 31.8927 143.636 30.5374C143.583 21.9142 143.573 13.291 143.625 4.66789C143.636 3.05633 144.785 2.18451 146.42 2.1713C148.098 2.15809 149.105 2.93481 149.221 4.63355C149.38 7.00069 149.364 9.38104 149.414 11.7535C149.433 12.5804 149.417 13.4073 149.417 14.3452V14.3425Z" fill="#107DC6"/>
<path d="M137.834 32.8702C136.431 32.9045 135.528 32.1648 135.012 30.9257C134.421 29.507 133.866 28.0725 133.343 26.63C133.105 25.9722 132.785 25.6657 132.026 25.6763C128.279 25.7265 124.531 25.7291 120.783 25.7053C120.053 25.7001 119.7 25.951 119.462 26.6511C118.967 28.1042 118.501 29.5942 117.776 30.9337C117.36 31.6998 116.551 32.5399 115.761 32.7592C113.395 33.417 111.801 31.5941 112.626 29.2191C113.419 26.9417 114.413 24.7358 115.321 22.4981C117.567 16.9659 119.812 11.4338 122.058 5.9043C122.191 5.57935 122.314 5.24911 122.463 4.93208C123.324 3.10389 124.709 2.00222 126.766 2.06034C128.784 2.11582 130.056 3.32052 130.786 5.13022C132.56 9.52634 134.311 13.933 136.059 18.3397C137.47 21.8878 138.894 25.4332 140.254 29.0024C141.136 31.3167 140.11 32.8966 137.834 32.8728V32.8702ZM121.608 21.0028H131.288C129.7 16.7414 128.158 12.6121 126.478 8.09972C124.774 12.6147 123.207 16.7625 121.608 21.0028Z" fill="#107DC6"/>
<path d="M77.8448 16.464C81.9092 19.2961 83.1654 22.181 82.1447 26.313C81.3858 29.3855 79.3837 31.3537 76.5127 32.421C72.9771 33.7367 69.321 33.6073 65.6728 33.0392C64.4689 32.8517 63.7859 31.9983 63.7362 30.7249C63.6917 29.5097 64.3904 28.4873 65.6806 28.2944C67.1357 28.0751 68.6275 28.1174 70.1035 28.0249C70.797 27.9827 71.4958 27.9351 72.1789 27.8109C74.3353 27.4252 75.6098 26.0646 75.6465 24.1704C75.6936 21.65 74.529 20.0015 72.2129 19.6105C70.5013 19.3225 68.7557 19.2327 67.0206 19.1085C65.3823 18.9923 64.6129 18.3661 64.5527 16.9976C64.4899 15.5869 65.1546 14.8286 66.7379 14.575C68.5437 14.287 70.36 14.0572 72.1658 13.7666C74.1574 13.4469 75.1231 12.34 75.0576 10.5118C74.9922 8.65716 74.0108 7.6321 71.98 7.44188C70.203 7.27544 68.4181 7.19883 66.6385 7.09844C64.9531 7.00069 64.1052 6.32965 63.9769 4.96907C63.8565 3.6719 64.6181 2.65212 66.17 2.29547C69.0776 1.62971 71.9852 2.04977 74.8614 2.54645C79.6428 3.37336 81.883 6.46174 81.3622 11.3545C81.1633 13.2144 80.2526 14.6569 78.7896 15.7665C78.486 15.9964 78.1772 16.2209 77.8475 16.4666L77.8448 16.464Z" fill="#107DC6"/>
<path d="M213.381 15.5155C215.425 12.0969 217.348 8.85794 219.298 5.63483C219.795 4.81056 220.314 3.98364 220.923 3.24655C221.968 1.98901 223.357 1.74331 224.519 2.49625C225.671 3.24391 226.066 4.65732 225.44 6.11565C225.079 6.95842 224.616 7.7642 224.148 8.55677C221.871 12.4087 219.523 16.2209 217.32 20.1177C216.762 21.1031 216.477 22.329 216.375 23.4729C216.21 25.3064 216.346 27.1663 216.27 29.013C216.234 29.8769 216.1 30.7699 215.828 31.5862C215.459 32.6984 214.564 33.2717 213.399 33.2268C212.237 33.1819 211.214 32.7196 210.866 31.5069C210.617 30.6351 210.526 29.6946 210.513 28.7831C210.395 20.1785 210.963 22.8125 206.935 15.822C205.291 12.9714 203.569 10.1657 201.921 7.31772C201.552 6.68102 201.259 5.97035 201.088 5.25704C200.801 4.04969 201.287 3.0669 202.329 2.45926C203.363 1.85691 204.462 1.85955 205.336 2.7578C206.03 3.47375 206.668 4.27689 207.186 5.12758C209.238 8.49865 211.232 11.9041 213.376 15.5129L213.381 15.5155Z" fill="#107DC6"/>
<path d="M44.8461 22.8574C42.9906 22.7675 41.5564 21.8719 40.7556 20.1283C39.9076 18.2869 40.1275 16.4666 41.4648 14.9502C43.5689 12.5619 46.3142 11.0956 49.2166 9.95697C50.4571 9.47086 51.5327 10.3665 51.3992 11.727C51.1035 14.7652 50.478 17.7294 48.9758 20.4268C48.0912 22.0172 46.7199 22.8204 44.8487 22.8574H44.8461Z" fill="#107DC6"/>
</svg>
