<svg width="140" height="130" viewBox="0 0 140 130" fill="none" xmlns="http://www.w3.org/2000/svg">
<ellipse cx="69.9993" cy="64.9999" rx="69.6429" ry="65" fill="white"/>
<path d="M109.98 64.9999C109.988 66.3702 109.634 67.7179 108.955 68.9046C108.276 70.0912 107.296 71.0741 106.115 71.7521L57.5194 100.055C56.347 100.746 55.0132 101.111 53.6549 101.111C52.2967 101.111 50.9629 100.746 49.7905 100.055C48.6101 99.3767 47.63 98.3938 46.9508 97.2072C46.2716 96.0205 45.9179 94.6728 45.9259 93.3026V36.6973C45.9179 35.327 46.2717 33.9794 46.9508 32.7927C47.63 31.606 48.61 30.6231 49.7904 29.9449C50.9629 29.2533 52.2966 28.8888 53.6549 28.8888C55.0131 28.8888 56.3469 29.2533 57.5194 29.9449L106.115 58.2477C107.296 58.9257 108.276 59.9086 108.955 61.0953C109.634 62.282 109.988 63.6297 109.98 64.9999Z" fill="url(#paint0_linear_2177_3022)"/>
<defs>
<linearGradient id="paint0_linear_2177_3022" x1="34.8019" y1="54.0196" x2="97.0754" y2="89.6609" gradientUnits="userSpaceOnUse">
<stop stop-color="#F6E89F"/>
<stop offset="1" stop-color="#F66E70"/>
</linearGradient>
</defs>
</svg>
