<svg width="30" height="31" viewBox="0 0 30 31" fill="none" xmlns="http://www.w3.org/2000/svg">
<circle cx="15" cy="15.667" r="15" fill="white"/>
<path d="M14.7753 21.6164H16.0301C16.0301 21.6164 16.4095 21.5744 16.6024 21.3654C16.7809 21.1734 16.7744 20.8132 16.7744 20.8132C16.7744 20.8132 16.7494 19.1267 17.5317 18.8782C18.3022 18.6337 19.2919 20.5083 20.3407 21.23C21.1335 21.7755 21.736 21.6559 21.736 21.6559L24.541 21.6164C24.541 21.6164 26.0085 21.5257 25.3128 20.3702C25.2564 20.2756 24.9072 19.5158 23.2271 17.9541C21.4682 16.3188 21.7045 16.5843 23.823 13.7567C25.1133 12.0346 25.6292 10.983 25.4677 10.5334C25.3141 10.1049 24.3651 10.2179 24.3651 10.2179L21.2096 10.2363C21.2096 10.2363 20.976 10.2048 20.8014 10.3086C20.6321 10.4111 20.5232 10.6478 20.5232 10.6478C20.5232 10.6478 20.0231 11.9807 19.3563 13.1139C17.9505 15.5051 17.3874 15.6313 17.1577 15.4827C16.6234 15.137 16.7573 14.0919 16.7573 13.3505C16.7573 11.0329 17.1078 10.0667 16.0735 9.81696C15.7296 9.73415 15.4775 9.67893 14.5994 9.66973C13.4732 9.6579 12.5189 9.67368 11.9795 9.9379C11.6198 10.1141 11.3429 10.5071 11.5122 10.5295C11.7209 10.5571 12.1934 10.657 12.4441 10.9988C12.7683 11.4391 12.7565 12.4303 12.7565 12.4303C12.7565 12.4303 12.9429 15.158 12.3221 15.4972C11.8955 15.7298 11.3114 15.2553 10.0578 13.085C9.41597 11.9742 8.93031 10.745 8.93031 10.745C8.93031 10.745 8.83711 10.5163 8.67041 10.3941C8.46827 10.2455 8.18475 10.1982 8.18475 10.1982L5.18416 10.2166C5.18416 10.2166 4.73394 10.2297 4.56855 10.4256C4.42154 10.6004 4.55673 10.9606 4.55673 10.9606C4.55673 10.9606 6.90628 16.4647 9.5656 19.2397C12.0057 21.7834 14.7753 21.6164 14.7753 21.6164Z" fill="#107DC6"/>
</svg>
