<svg width="30" height="31" viewBox="0 0 30 31" fill="none" xmlns="http://www.w3.org/2000/svg">
<circle cx="15" cy="15.667" r="15" fill="white"/>
<path d="M12.6462 25.8294C23.3273 25.8294 22.505 24.0665 27 15.9271C24.2425 7.71258 20.0119 5.49955 14.346 3.84915C10.0776 4.86189 4.67597 7.12107 4.67597 17.7275C4.67597 28.3339 1.96503 25.8294 12.6462 25.8294Z" fill="#107DC6"/>
<path d="M23.5152 7.197C21.5031 5.17898 18.8309 3.9414 15.9808 3.70748C13.1307 3.47356 10.2902 4.25871 7.97169 5.92129C5.65319 7.58388 4.0093 10.0145 3.33656 12.7746C2.66382 15.5348 3.0065 18.4428 4.3028 20.9741L3.03032 27.1087C3.01712 27.1698 3.01675 27.2329 3.02922 27.2941C3.0417 27.3553 3.06677 27.4133 3.10285 27.4644C3.1557 27.5421 3.23115 27.6018 3.31911 27.6358C3.40708 27.6697 3.50337 27.6761 3.59514 27.6543L9.64984 26.2292C12.1919 27.4839 15.0997 27.8023 17.8559 27.1278C20.6122 26.4533 23.038 24.8297 24.7019 22.5458C26.3658 20.2619 27.1597 17.4659 26.9424 14.6554C26.7251 11.8448 25.5107 9.20191 23.5152 7.197ZM21.6274 22.1592C20.2352 23.5377 18.4424 24.4478 16.5018 24.761C14.5612 25.0742 12.5705 24.7748 10.8102 23.905L9.96631 23.4904L6.25437 24.3633L6.26536 24.3175L7.03456 20.6075L6.62139 19.7979C5.722 18.0438 5.40472 16.0522 5.71502 14.1081C6.02532 12.1641 6.94727 10.3675 8.3488 8.97561C10.1098 7.22743 12.498 6.24535 14.9881 6.24535C17.4782 6.24535 19.8664 7.22743 21.6274 8.97561C21.6424 8.99269 21.6585 9.00873 21.6757 9.02362C23.415 10.7763 24.3859 13.1407 24.3768 15.6013C24.3678 18.0619 23.3795 20.4191 21.6274 22.1592Z" fill="#107DC6"/>
<path d="M21.2977 19.4378C20.8428 20.1492 20.1242 21.02 19.2209 21.236C17.6385 21.6158 15.2101 21.2491 12.1882 18.4514L12.1508 18.4186C9.4938 15.9722 8.80372 13.9361 8.97075 12.3211C9.06305 11.4046 9.83225 10.5753 10.4806 10.034C10.5831 9.94718 10.7046 9.88533 10.8355 9.85345C10.9664 9.82157 11.1029 9.82054 11.2343 9.85044C11.3656 9.88034 11.4881 9.94035 11.5919 10.0257C11.6957 10.111 11.778 10.2192 11.8322 10.3418L12.8102 12.5241C12.8737 12.6656 12.8973 12.8216 12.8783 12.9754C12.8593 13.1292 12.7985 13.275 12.7025 13.397L12.208 14.0343C12.1019 14.1659 12.0379 14.326 12.0241 14.494C12.0104 14.662 12.0477 14.8302 12.1311 14.9771C12.408 15.4594 13.0717 16.1686 13.8079 16.8255C14.6343 17.5675 15.5507 18.2462 16.1309 18.4775C16.2862 18.5405 16.4568 18.5559 16.621 18.5217C16.7851 18.4874 16.9351 18.4052 17.0518 18.2855L17.6254 17.7115C17.736 17.6032 17.8737 17.5259 18.0242 17.4875C18.1748 17.4492 18.3329 17.4512 18.4825 17.4933L20.8054 18.148C20.9336 18.187 21.051 18.2547 21.1488 18.3457C21.2466 18.4367 21.3222 18.5487 21.3697 18.6732C21.4172 18.7976 21.4354 18.9312 21.4229 19.0637C21.4104 19.1963 21.3676 19.3242 21.2977 19.4378Z" fill="#107DC6"/>
</svg>
