<svg width="30" height="31" viewBox="0 0 30 31" fill="none" xmlns="http://www.w3.org/2000/svg">
<circle cx="15" cy="15.667" r="15" fill="white"/>
<path d="M23.6137 11.0294C23.3975 10.2034 22.7643 9.55233 21.9612 9.32991C20.4939 8.91699 14.6248 8.91699 14.6248 8.91699C14.6248 8.91699 8.75588 8.91699 7.28861 9.31417C6.50098 9.53645 5.85224 10.2036 5.63609 11.0294C5.25 12.5381 5.25 15.667 5.25 15.667C5.25 15.667 5.25 18.8116 5.63609 20.3046C5.85239 21.1304 6.48553 21.7817 7.28876 22.0041C8.77133 22.417 14.625 22.417 14.625 22.417C14.625 22.417 20.4939 22.417 21.9612 22.0198C22.7644 21.7975 23.3975 21.1463 23.6138 20.3205C23.9999 18.8116 23.9999 15.6829 23.9999 15.6829C23.9999 15.6829 24.0154 12.5381 23.6137 11.0294Z" fill="#107DC6"/>
<path d="M12.7561 18.5576L17.6366 15.667L12.7561 12.7764V18.5576Z" fill="white"/>
</svg>
